<svg xmlns="http://www.w3.org/2000/svg" width="15" height="15" viewBox="0 0 15 15" fill="none">
<path fill-rule="evenodd" clip-rule="evenodd" d="M7.08744 8.4463V12.0842C7.08744 12.4467 7.51842 12.6364 7.78565 12.3914L10.2857 10.0997C10.4658 9.93454 10.4658 9.65052 10.2857 9.48532L8.12074 7.50086L10.2857 5.5164C10.4658 5.3512 10.4658 5.06719 10.2857 4.90198L7.78565 2.61032C7.51842 2.36536 7.08744 2.55498 7.08744 2.91753V6.55543L5.05649 4.69365C4.88686 4.53821 4.62329 4.54961 4.46781 4.71929C4.31229 4.88896 4.32376 5.15243 4.49339 5.30807L6.88559 7.50086L4.49339 9.69365C4.32376 9.84929 4.31229 10.1128 4.46781 10.2824C4.62329 10.4521 4.88686 10.4635 5.05649 10.3081L7.08744 8.4463ZM7.92077 6.5538L9.38747 5.20919L7.92077 3.86479V6.5538ZM9.38747 9.79253L7.92077 11.1371V8.44813L9.38747 9.79253Z" fill="#1DB954"/>
</svg>